Patient4_TMGait_0pt4_02_left_42_EMG.mot
version=1
nRows=19
nColumns=33
inDegrees=no
endheader
time	1LAddLong	2LGlutMax	3LGlutMed	4LIliopsoas	5LSemiMemb	6LBicFemLong	7LRecFem	8LVastMed	9LVastLat	10LGasMed	11LTibAnt	12lTibPost	13LPeroneusLong	14LSol	15LExtDigLong	16LFlexDigLong	17RAddLong	18RGlutMax	19RGlutMed	20RIliopsoas	21RSemiMemb	22RBicFemLong	23RRecFem	24RVastMed	25RVastLat	26RGasMed	27RTibAnt	28RTibPost	29RPeroneusLong	30RSol	31RExtDigLong	32RFlexDigLong
57.37	0.013733	-0.02655	-0.012512	-0.002594	0.00946	-0.030365	-0.020752	-0.002136	0.049591	-0.016022	0.009918	0.0177	0.011139	-0.17822	-0.056763	-0.003052	0.014038	0.068207	-0.45181	0.14328	-0.009003	0.025482	0.32761	-0.083008	-0.1506	-0.008698	0.030212	-0.010223	0.80353	0.056	-0.003815	-0.007172
57.371	0.019684	-0.036316	-0.031433	0.001984	-0.025482	-0.005493	-0.01236	0.005646	0.047913	-0.042572	-0.002441	0.027466	0.004272	-0.18539	0.084991	0.009918	0.010986	0.097809	0.2063	0.070648	-0.006561	0.041656	0.27557	-0.16586	-0.21591	0.001068	-0.11871	-0.000916	0.76614	0.060272	-0.007324	-0.000153
57.372	0.011444	-0.022736	-0.03952	0.00412	-0.005493	-0.027008	-0.026855	0.003204	0.042419	-0.03952	-0.032806	0.019379	0.021057	-0.1799	0.36545	0.016174	0.002747	0.14771	0.11612	-0.030518	-0.013885	0.059509	0.14542	-0.26047	-0.24948	-0.00412	0.016174	-0.000763	-1.2881	0.071869	-0.005951	0.004272
57.373	0.00885	-0.022125	-0.040283	0.002594	-0.001678	-0.044556	-0.024261	-0.001373	0.043182	-0.026093	-0.037079	0.018768	0.037537	-0.12207	0.045471	0.012512	-0.005798	0.051575	0.72922	-0.16846	0.004425	0.079041	0.016479	-0.23682	-0.24323	0.001526	0.14282	0.001984	0.36941	0.032654	-0.006409	-0.000305
57.374	0.000305	-0.054169	-0.084534	-0.00061	-0.01236	-0.081024	-0.002441	0.00351	0.050049	-0.001068	-0.06546	0.016327	0.04715	-0.076141	-0.19928	0.001984	-0.011444	0.020142	0.46982	-0.10696	0.016174	0.090637	-0.11749	-0.085602	-0.16251	0.000305	0.29495	-0.001068	0.36148	0.072327	-0.001831	-0.008545
57.375	0.003662	-0.014191	-0.103	0.005188	0.004578	-0.083923	-0.008087	0.004425	0.05249	-0.005188	-0.028076	0.024261	0.063324	-0.07309	-0.021362	0.00946	-0.023499	-0.025635	0.16281	-0.039673	0.016479	0.080414	-0.13901	0.002136	0.08606	-0.001984	0.28931	0.001526	-0.72662	-0.00473	-0.005188	-0.013275
57.376	0.007629	-0.032196	-0.09079	-0.003967	0.019989	-0.05722	-0.006104	-0.004425	0.052643	-0.009766	-0.059662	0.018616	0.06012	-0.051117	0.29022	0.014191	0.010071	-0.004272	0.74814	-0.024414	0.005798	0.055389	0.12528	0.10651	0.20187	-0.007019	-0.012054	0.000305	-0.22003	-0.040131	0.00061	-0.010071
57.377	0.007324	-0.046234	0.007629	-0.003204	-0.005341	-0.007629	0.003967	-0.003357	0.054626	-0.005341	-0.038605	0.018921	0.046997	-0.048065	-0.095825	0.023193	0.02121	-0.036926	0.21149	0.017548	-0.000916	0.04837	0.21805	0.064545	0.20966	-0.00412	-0.34561	-0.00473	0.81741	0.007629	-0.001526	-0.011749
57.378	0.031433	-0.041046	0.097809	0.009918	-0.044861	-0.004425	-0.010223	-0.002747	0.063171	-0.005341	0.013733	0.009766	0.03006	-0.05127	-0.22339	0.011902	0.015259	-0.011444	-0.082703	-0.0383	-0.010223	0.060425	0.11414	0.084229	0.094604	-0.009308	-0.26871	-0.003357	0.63019	0.049286	-0.004578	-0.007782
57.379	0.021667	-0.059204	0.054016	0.001373	-0.072937	-0.007172	-0.002441	-0.00351	0.048523	-0.011444	0.040588	0.013123	0.048828	-0.04364	-0.21301	0.012207	0.016174	0.052948	0.13229	-0.18906	-0.051575	0.06485	-0.057678	-0.02182	0.037079	0.001831	-0.22217	-0.000763	-0.05661	-0.07782	-0.003052	-0.0177
57.38	0.019226	-0.098114	0.031128	0.001831	-0.010071	-0.017548	0.009613	0.003662	0.051117	-0.0177	-0.024261	0.014038	0.083466	-0.056152	-0.087585	0.007019	0.015717	-0.022736	0.092621	-0.067139	-0.032349	0.049744	-0.13382	0.046844	0.099182	0.005341	-0.09964	0.000763	-0.53955	-0.20706	0.000305	-0.000153
57.381	0.015717	-0.10483	0.071564	-0.00473	0.041199	-0.023499	0.019836	-0.001984	0.046844	-0.019836	-0.027924	0.007477	0.038605	-0.069427	0.1207	0.013885	0.015259	0.013275	-0.37491	0.00351	0.018311	0.059052	-0.13229	-0.015106	0.007935	0.010071	-0.1532	-0.001831	0.17975	-0.20157	-0.001373	-0.005951
57.382	0.017548	-0.10803	0.053864	-0.015259	0.031128	-0.000153	-0.007172	-0.002136	0.046082	-0.010834	0.10422	-0.010681	0.01709	-0.096741	0.097656	0.009613	0.023193	0.06424	-0.3305	0.089111	-0.042419	0.035706	-0.16815	-0.06073	0.090942	0.00351	0.19089	-0.001831	-0.34103	0.016785	-0.003815	0.005951
57.383	0.010529	-0.061951	-0.032501	0.007324	0.00946	-0.011444	0.00412	-0.001984	0.050659	-0.016937	0.11932	0.01297	0.019684	-0.13153	-0.001831	0.014801	0.030975	0.064392	-0.28488	0.2121	-0.16754	0.055847	-0.057678	-0.080872	0.3714	0.000763	0.56534	-0.000763	-0.81543	0.10346	-0.008545	0.00824
57.384	0.015564	-0.057831	-0.039063	-0.002899	-0.002899	-0.027924	-0.009155	0.002899	0.048981	-0.009155	0.066833	0.002289	-0.011292	-0.13077	0.037994	0.025482	-0.01358	0.075684	-0.21072	0.15152	-0.22903	0.091095	0.012512	-0.093384	0.32211	-0.002899	0.64651	-0.005035	-0.3746	-0.0383	-0.004883	0.000153
57.385	0.007935	-0.051422	-0.040283	-0.002136	-0.008392	-0.026398	-0.006104	-0.001984	0.045471	-0.015259	0.032654	0.005493	-0.001678	-0.096741	0.053253	0.016785	-0.029144	0.095367	0.75928	0.10681	0.030975	0.027618	-0.19684	-0.14069	0.35675	-0.00824	-0.20706	-0.003357	0.41702	0.01297	-0.004425	-0.001984
57.386	-0.00061	-0.076752	-0.068665	0.006866	0.028076	-0.05661	0.020905	0.001068	0.040436	-0.009003	0.00412	0.005798	-0.033569	-0.13977	0.09903	0.019226	-0.053711	0.074463	0.18753	0.058746	0.074158	0.029602	-0.33966	-0.001221	0.3569	-0.009308	-0.28824	0.000916	-0.089264	0.056305	-0.00351	-0.006104
57.387	0.009155	-0.13382	-0.003052	0.034027	0.04364	-0.044098	0.005188	0.004272	0.040741	-0.014801	-0.006409	-0.001373	-0.019073	-0.024414	0.089874	0.00946	-0.042877	-0.029602	-0.1683	0.054474	0.095673	-0.000458	-0.12222	0.098724	0.33814	-0.00412	0.032654	-0.001526	0.35889	-0.085907	-0.006104	-0.007477
57.388	0.005035	-0.13931	0.015869	0.028687	0.018768	-0.069122	0.002289	-0.002747	0.043182	-0.011902	-0.061188	-0.001984	-0.002747	-0.022736	0.043182	0.014038	-0.027008	-0.061188	-0.24185	-0.000305	0.081787	0.053253	0.18372	0.1503	0.028381	0.007019	-0.075226	-0.001678	0.70389	-0.05661	0	0.00061
